<?xml version="1.0" standalone="no"?>
<!DOCTYPE svg PUBLIC "-//W3C//DTD SVG 20010904//EN"
 "http://www.w3.org/TR/2001/REC-SVG-20010904/DTD/svg10.dtd">
<svg version="1.0" xmlns="http://www.w3.org/2000/svg"
 width="456.000000pt" height="456.000000pt" viewBox="0 0 456.000000 456.000000"
 preserveAspectRatio="xMidYMid meet">

<g transform="translate(0.000000,456.000000) scale(0.100000,-0.100000)"
fill="#000000" stroke="none">
<path d="M0 3400 l0 -1160 40 -6 c22 -4 40 -10 40 -14 0 -5 17 -11 38 -15 44
-7 69 -21 59 -32 -5 -4 -12 -2 -16 5 -4 7 -15 10 -24 6 -9 -3 -17 -2 -17 3 0
8 -84 33 -111 33 -5 0 -9 -13 -9 -30 0 -24 4 -30 22 -30 21 0 21 0 2 -15 -17
-13 -16 -14 26 -13 41 0 104 -11 215 -40 22 -6 84 -26 137 -45 53 -20 121 -40
151 -47 40 -8 66 -21 96 -49 35 -33 50 -39 96 -43 30 -3 52 -1 49 4 -3 5 1 20
10 33 12 18 13 25 3 29 -9 5 -9 7 1 12 6 3 12 17 12 30 0 14 7 41 15 61 8 19
15 46 15 59 0 13 5 24 11 24 12 0 8 -30 -18 -160 -8 -41 -15 -79 -16 -84 -1
-5 32 -8 73 -7 43 1 116 -7 170 -18 67 -14 171 -23 349 -30 139 -6 256 -13
260 -15 4 -3 46 -6 94 -7 53 -2 84 -6 80 -13 -4 -5 1 -7 11 -3 10 4 31 7 47 7
16 0 29 5 29 11 0 8 -20 10 -59 7 -33 -2 -58 -1 -56 2 3 4 -7 12 -20 18 -14 7
-25 17 -25 23 0 8 -15 10 -52 5 -160 -21 -308 -5 -294 31 6 15 -36 28 -59 19
-10 -4 -30 8 -55 34 l-39 40 27 18 c37 24 82 44 112 48 41 5 99 28 99 39 1 6
-18 10 -42 10 -25 0 -47 6 -53 14 -6 8 -31 17 -55 21 -27 3 -43 11 -41 18 4
22 -33 12 -51 -13 -10 -14 -13 -25 -7 -25 5 0 10 -4 10 -10 0 -16 -14 -12 -40
13 -19 17 -41 23 -105 29 -138 11 -253 9 -258 -4 -2 -7 -8 -10 -12 -6 -4 4 -3
27 3 50 11 41 81 399 159 813 19 105 39 199 44 210 20 50 6 -50 -35 -259 -66
-331 -86 -433 -86 -445 0 -6 13 -11 29 -11 16 0 37 -3 45 -6 15 -6 15 -8 -1
-19 -17 -13 -16 -14 12 -25 16 -6 41 -10 55 -8 14 1 39 -7 56 -19 24 -17 39
-21 69 -16 28 4 36 3 31 -5 -4 -7 -15 -12 -25 -12 -9 0 -21 -4 -27 -10 -5 -5
-52 -11 -104 -14 -52 -2 -107 -9 -123 -15 -22 -9 -27 -8 -27 4 0 8 5 15 12 15
9 0 9 3 0 12 -7 7 -12 25 -12 40 0 24 4 28 30 28 20 0 30 5 30 15 0 21 -47 19
-58 -2 -5 -10 -12 -38 -16 -63 -4 -25 -9 -61 -12 -80 -5 -27 -4 -32 5 -24 9 8
20 4 41 -17 16 -16 35 -29 43 -29 8 0 20 -7 27 -15 18 -21 34 -19 45 8 6 12
20 23 33 25 12 2 22 7 22 12 0 42 260 66 385 35 99 -25 138 -54 78 -56 -16 -1
-4 -5 26 -10 54 -9 85 -25 76 -38 -6 -10 80 -81 98 -81 13 0 40 42 42 65 0 6
3 15 7 20 3 6 9 27 13 47 4 20 13 39 21 42 8 3 25 29 38 59 16 33 35 58 50 65
14 6 26 16 26 21 0 6 10 19 21 30 16 15 30 18 52 14 25 -5 29 -3 24 9 -4 11 2
18 16 22 l22 6 -24 16 c-18 13 -20 18 -10 25 11 7 10 9 -3 9 -21 0 -35 55 -19
74 12 14 5 46 -10 46 -5 0 -9 4 -9 9 0 17 77 5 105 -17 33 -26 65 -29 65 -6 0
11 5 14 17 10 10 -4 14 -4 11 0 -11 10 15 31 37 31 83 -2 117 4 112 17 -3 8
10 30 29 50 20 20 32 36 27 35 -4 -1 -19 3 -33 9 -18 8 -20 11 -7 11 9 1 17 5
17 10 0 5 9 7 20 4 11 -3 20 -11 20 -18 0 -13 73 -45 103 -45 9 0 17 -7 17
-15 0 -8 5 -15 10 -15 6 0 10 -9 10 -20 0 -10 6 -23 13 -27 6 -4 27 -25 45
-46 33 -39 42 -77 18 -77 -8 0 -16 -7 -20 -15 -3 -8 -16 -15 -28 -16 -21 -1
-20 -2 5 -11 15 -5 43 -7 61 -4 34 7 88 50 99 80 15 38 103 39 101 0 -1 -26
-15 -77 -24 -89 -10 -13 -1 -65 11 -65 5 0 29 20 52 45 33 34 48 43 64 39 15
-4 30 2 48 20 14 14 34 26 44 26 10 0 21 9 24 20 5 20 27 28 27 10 0 -18 60
-10 110 15 27 14 63 25 79 25 16 0 76 18 133 39 56 22 119 42 139 45 19 4 44
14 55 24 21 19 87 63 119 80 20 10 20 11 1 18 -12 5 -21 3 -24 -4 -6 -20 -19
-13 -26 13 -4 15 -11 22 -20 19 -16 -6 -33 33 -42 101 -4 28 -11 56 -16 63 -7
8 -7 12 1 12 8 0 10 8 7 20 -3 11 -9 29 -12 40 -4 14 -1 20 10 20 9 0 16 4 16
10 0 5 -6 7 -14 4 -16 -6 -36 24 -36 54 0 11 -6 25 -14 31 -11 10 -15 8 -18
-6 -3 -10 -8 1 -12 25 -8 42 -26 59 -26 23 0 -11 -5 -23 -10 -26 -7 -4 -8 18
-4 65 4 40 2 116 -5 173 -18 149 -28 176 -23 65 4 -86 2 -98 -12 -98 -14 0
-16 12 -14 83 1 45 -1 102 -5 127 -3 25 -6 53 -6 63 -1 14 -6 17 -22 12 -20
-7 -21 -5 -15 25 3 18 6 46 6 62 0 25 3 29 20 25 19 -5 20 0 19 71 0 43 -4
100 -9 127 l-7 50 -2 -42 c-1 -31 -5 -43 -16 -43 -11 0 -15 11 -15 40 0 22 4
40 9 40 13 0 34 67 26 80 -4 7 2 9 19 4 17 -4 26 -2 26 5 0 9 5 9 20 1 16 -9
18 -8 14 5 -4 8 -14 15 -23 16 -37 2 -109 27 -79 28 26 1 29 16 8 41 -24 27
-24 28 -6 45 10 10 16 11 25 2 7 -7 11 -8 11 0 0 6 -7 16 -15 23 -8 7 -15 17
-15 22 0 17 -37 58 -45 50 -5 -4 -5 -1 -1 5 7 13 -22 73 -35 73 -4 0 -10 -6
-12 -12 -4 -10 -6 -10 -6 0 -1 9 -344 12 -1681 12 l-1680 0 0 -1160z m3517 33
c-2 -16 -4 -5 -4 22 0 28 2 40 4 28 2 -13 2 -35 0 -50z m-557 -283 c0 -5 -2
-10 -4 -10 -3 0 -8 5 -11 10 -3 6 -1 10 4 10 6 0 11 -4 11 -10z m-110 -20 c0
-5 -4 -10 -10 -10 -5 0 -10 5 -10 10 0 6 5 10 10 10 6 0 10 -4 10 -10z m-40
-21 c0 -21 -34 -59 -52 -59 -13 0 -10 12 12 48 23 37 40 42 40 11z m177 -21
c-3 -8 -6 -5 -6 6 -1 11 2 17 5 13 3 -3 4 -12 1 -19z m-207 -78 c0 -5 -4 -10
-10 -10 -5 0 -10 5 -10 10 0 6 5 10 10 10 6 0 10 -4 10 -10z m-430 -49 c0 -5
-10 -11 -22 -14 -22 -6 -22 -6 -4 8 23 17 26 18 26 6z m-35 -71 c-3 -5 -11
-10 -16 -10 -6 0 -7 5 -4 10 3 6 11 10 16 10 6 0 7 -4 4 -10z m394 -34 c6 -7
23 -13 37 -13 30 0 41 -10 27 -24 -6 -6 -17 -6 -34 1 -45 20 -69 37 -62 43 10
10 19 8 32 -7z m-142 -2 c-3 -3 -12 -4 -19 -1 -8 3 -5 6 6 6 11 1 17 -2 13 -5z
m-367 -14 c0 -5 -7 -10 -16 -10 -8 0 -12 5 -9 10 3 6 10 10 16 10 5 0 9 -4 9
-10z m-1631 -66 c-18 -22 -22 -11 -7 22 10 21 14 24 16 10 2 -9 -2 -24 -9 -32z
m1655 10 c-10 -8 -13 -13 -6 -9 21 11 13 -14 -8 -25 -11 -6 -20 -9 -21 -8 -9
36 5 57 40 58 11 0 9 -4 -5 -16z m624 -5 c22 -7 29 -15 25 -26 -4 -11 -2 -14
5 -9 8 5 12 0 12 -13 0 -25 -9 -26 -48 -4 -19 11 -29 25 -29 40 0 13 1 23 2
23 1 0 16 -5 33 -11z m-2281 -29 c12 0 14 -6 8 -27 -3 -16 -10 -56 -14 -91
-10 -73 -17 -84 -50 -75 -23 6 -23 8 -17 80 8 85 23 126 44 118 7 -3 21 -5 29
-5z m420 -196 c-3 -3 -12 -4 -19 -1 -8 3 -5 6 6 6 11 1 17 -2 13 -5z m221 -89
c15 -15 -12 -15 -40 -1 l-33 17 34 -5 c19 -4 37 -8 39 -11z m-1004 -82 c-9
-54 -18 -60 -61 -38 -21 10 -49 17 -62 16 -15 -2 -21 1 -16 8 3 6 11 9 16 5 5
-3 17 0 26 8 9 7 34 18 57 24 23 6 42 12 44 13 2 0 0 -16 -4 -36z m1089 30
c-7 -2 -21 -2 -30 0 -10 3 -4 5 12 5 17 0 24 -2 18 -5z m477 -16 c-1 -28 -60
-77 -94 -77 -24 0 -19 29 7 39 13 5 34 20 47 34 24 25 40 27 40 4z m-390 9 c0
-3 -4 -8 -10 -11 -5 -3 -10 -1 -10 4 0 6 5 11 10 11 6 0 10 -2 10 -4z m133
-33 c-7 -2 -21 -2 -30 0 -10 3 -4 5 12 5 17 0 24 -2 18 -5z m-1463 -13 c0 -5
-7 -10 -16 -10 -8 0 -12 5 -9 10 3 6 10 10 16 10 5 0 9 -4 9 -10z m133 -99
c-6 -50 -7 -52 -32 -46 -14 3 -39 13 -55 21 -16 8 -36 14 -45 15 -9 1 11 7 44
14 33 7 64 11 70 8 5 -3 4 0 -2 8 -18 18 -16 32 2 25 8 -3 15 0 15 6 0 6 2 9
5 7 2 -3 2 -29 -2 -58z m1137 -131 c0 -5 -5 -10 -11 -10 -5 0 -7 5 -4 10 3 6
8 10 11 10 2 0 4 -4 4 -10z"/>
<path d="M3520 4325 c0 -5 5 -17 10 -25 5 -8 10 -10 10 -5 0 6 -5 17 -10 25
-5 8 -10 11 -10 5z"/>
<path d="M3556 4277 c3 -10 9 -15 12 -12 3 3 0 11 -7 18 -10 9 -11 8 -5 -6z"/>
<path d="M3543 3640 c0 -25 2 -35 4 -22 2 12 2 32 0 45 -2 12 -4 2 -4 -23z"/>
<path d="M3855 2950 c3 -5 8 -10 11 -10 2 0 4 5 4 10 0 6 -5 10 -11 10 -5 0
-7 -4 -4 -10z"/>
<path d="M4007 2711 c-12 -20 -19 -75 -26 -207 -27 -456 -38 -565 -56 -558 -7
3 -15 -2 -18 -10 -4 -9 -3 -16 2 -16 4 0 8 -13 8 -30 0 -31 -14 -39 -35 -18
-6 6 -30 12 -54 12 -34 1 -45 6 -54 24 -18 36 -28 42 -44 24 -13 -14 -12 -15
4 -9 14 6 17 4 12 -9 -3 -8 -6 -24 -6 -34 0 -10 -7 -26 -16 -34 -14 -15 -18
-14 -40 6 -13 13 -24 30 -25 38 0 8 -5 0 -10 -17 -11 -36 -20 -41 -39 -18 -16
19 -37 19 -75 -1 -19 -9 -50 -14 -84 -13 -60 3 -72 -8 -41 -36 24 -22 26 -35
4 -35 -10 0 -14 6 -10 15 3 8 1 15 -5 15 -6 0 -13 -9 -16 -20 -3 -11 -12 -20
-21 -20 -13 0 -12 -3 3 -20 18 -20 17 -20 -11 -21 -16 0 -22 -3 -14 -6 22 -9
30 -25 20 -42 -4 -9 -9 -54 -10 -101 -3 -136 -2 -135 -29 -138 -14 -2 -37 7
-60 25 -95 77 -141 103 -180 103 -38 0 -38 0 -75 80 -20 45 -53 99 -73 121
-38 42 -63 47 -117 24 -18 -8 -18 -7 -1 18 9 15 15 27 12 27 -3 0 1 17 10 38
21 48 34 115 53 272 6 47 17 111 25 143 21 83 20 87 -19 87 -24 0 -39 -7 -49
-20 -15 -21 -12 -70 4 -70 10 0 12 -41 3 -64 -4 -11 -13 -14 -29 -10 -18 4
-24 1 -29 -21 -4 -17 -1 -31 9 -41 12 -12 13 -20 5 -29 -9 -10 -6 -16 9 -25
24 -12 29 -43 6 -34 -12 5 -14 0 -9 -24 5 -23 1 -35 -15 -48 -23 -20 -28 -50
-8 -57 7 -4 6 -6 -5 -6 -11 -1 -15 -7 -11 -21 3 -11 9 -20 14 -20 5 0 9 -6 9
-12 -1 -7 -9 -3 -19 10 -26 30 -33 28 -15 -5 19 -38 18 -40 -18 -38 -43 3 -53
-4 -31 -21 17 -13 17 -13 -2 -14 -32 0 -48 -21 -28 -35 16 -12 16 -14 1 -29
-12 -12 -18 -13 -21 -3 -3 6 -6 2 -6 -10 -1 -12 -11 -32 -23 -46 -20 -23 -23
-23 -35 -8 -11 14 -11 13 -7 -6 4 -15 0 -25 -14 -32 -18 -10 -20 -8 -17 9 3
17 1 19 -16 10 -10 -6 -19 -20 -19 -31 0 -11 -10 -24 -22 -29 -13 -5 -17 -9
-10 -9 22 -1 5 -18 -42 -40 -25 -11 -52 -18 -61 -15 -8 3 -15 2 -15 -4 0 -6 5
-12 12 -14 7 -3 1 -12 -14 -23 l-25 -20 30 -37 c27 -34 35 -38 77 -38 26 0 61
-5 79 -11 36 -13 35 -32 -6 -86 -33 -43 -47 -46 -74 -16 -34 36 -151 112 -191
124 -49 14 -118 11 -170 -7 -51 -17 -135 -94 -144 -131 -4 -13 -10 -23 -14
-23 -5 0 -11 -18 -15 -39 -5 -29 -11 -38 -21 -34 -8 3 -14 0 -14 -6 0 -6 8
-11 18 -12 9 0 13 -2 7 -5 -6 -2 -9 -43 -8 -97 1 -101 30 -205 80 -297 14 -25
17 -36 8 -25 -9 11 -19 19 -23 19 -15 -3 -40 22 -60 59 -22 43 -23 42 -46 -29
-19 -57 -59 -123 -104 -171 -23 -25 -26 -33 -15 -37 26 -10 45 -6 102 20 70
34 138 39 336 26 166 -11 163 -11 238 51 34 28 45 42 36 48 -20 12 7 38 34 32
16 -4 18 -2 8 5 -12 8 -11 15 6 38 11 16 28 50 38 77 11 28 24 47 33 47 13 0
12 3 -4 14 -32 24 -8 29 35 7 51 -27 91 -99 91 -166 l0 -45 53 20 c74 28 81
24 17 -10 -30 -16 -47 -29 -37 -30 10 0 32 7 49 16 30 16 81 15 178 -2 34 -6
34 -5 14 10 -33 24 -55 80 -53 131 2 25 6 45 10 45 4 0 9 8 11 18 3 10 22 26
41 36 77 36 164 -17 198 -119 l19 -59 -21 -29 -21 -28 29 3 c18 2 29 10 31 23
10 51 51 66 122 45 19 -6 62 -12 95 -14 33 -3 119 -10 190 -16 72 -7 142 -12
158 -11 15 1 27 -4 27 -10 0 -6 -7 -8 -16 -5 -8 3 -12 2 -9 -4 6 -10 -24 -16
-127 -25 -75 -7 -89 -21 -30 -30 20 -3 55 -14 77 -24 22 -10 54 -21 71 -25
l30 -7 12 88 c7 48 12 103 12 122 l-1 34 63 -6 c35 -4 117 -9 183 -11 113 -4
115 -4 35 4 -47 5 -123 12 -169 15 -47 3 -88 8 -92 11 -4 2 -1 17 7 32 7 15
14 32 14 37 0 6 15 27 33 48 26 31 37 37 63 34 41 -5 74 9 73 30 0 16 -1 16
-9 -2 -7 -17 -9 -15 -9 13 -1 21 4 32 13 32 8 0 16 5 18 12 3 8 11 8 34 -1 27
-10 27 -11 3 -6 -25 4 -27 2 -31 -34 -2 -22 2 -43 9 -50 15 -14 43 -15 43 -1
0 6 -6 10 -14 10 -18 0 -31 39 -18 52 7 7 16 6 29 -2 16 -10 16 -11 -5 -7 -12
3 -20 1 -16 -4 3 -5 22 -10 42 -10 l37 -2 -35 -7 c-38 -8 -35 -10 25 -16 22
-2 45 -10 51 -19 6 -8 21 -15 33 -15 11 0 21 -4 21 -10 0 -5 11 -10 25 -10 28
0 59 -39 50 -62 -4 -10 1 -17 13 -20 17 -5 21 1 28 41 12 69 12 85 4 91 -13 9
9 50 27 50 10 0 43 -7 73 -15 30 -8 61 -15 68 -15 18 0 17 668 -2 693 -16 21
-105 24 -125 5 -11 -10 -14 -10 -18 0 -3 6 -11 12 -19 12 -8 0 -17 7 -20 15
-4 8 -10 15 -15 15 -5 0 -9 -7 -9 -15 0 -8 -6 -15 -13 -15 -8 0 -19 -11 -25
-25 -15 -32 -28 -32 -46 3 l-15 27 -1 -27 c0 -25 -3 -28 -36 -28 -23 0 -42 7
-50 18 -12 15 -13 14 -4 -11 13 -36 13 -37 -5 -37 -8 0 -15 5 -15 11 0 6 -16
26 -35 45 -20 19 -35 40 -34 47 4 33 0 40 -17 26 -15 -12 -18 -11 -28 5 -6 11
-19 28 -30 39 -13 13 -15 22 -7 26 7 5 13 56 16 136 3 70 9 144 14 164 5 20 9
97 9 172 0 107 3 143 16 168 9 17 14 36 11 42 -4 5 -2 15 3 22 6 7 13 33 17
59 6 41 4 50 -17 71 l-25 25 -16 -27z m-1277 -931 c0 -5 -4 -10 -10 -10 -5 0
-10 5 -10 10 0 6 5 10 10 10 6 0 10 -4 10 -10z m1314 -5 c3 -9 0 -15 -9 -15
-8 0 -15 7 -15 15 0 8 4 15 9 15 5 0 11 -7 15 -15z m-54 -37 c0 -9 -4 -20 -10
-23 -6 -4 -10 9 -10 32 0 28 3 34 10 23 5 -8 10 -23 10 -32z m-201 5 c22 -6
22 -6 -9 -19 -18 -8 -49 -15 -69 -15 l-36 -2 35 -7 35 -7 -31 -2 c-18 0 -37 6
-45 15 -10 13 -24 15 -65 10 -28 -3 -54 -2 -58 2 -21 19 184 41 243 25z m-276
-20 c-7 -2 -19 -2 -25 0 -7 3 -2 5 12 5 14 0 19 -2 13 -5z m187 -121 c0 -20
-4 -32 -8 -26 -10 17 -89 10 -110 -10 -10 -9 -22 -13 -27 -9 -4 5 -4 -2 -1
-14 6 -18 4 -22 -8 -17 -25 10 -27 35 -5 66 26 35 43 42 109 45 l50 2 0 -37z
m-1039 5 c-10 -9 -11 -8 -5 6 3 10 9 15 12 12 3 -3 0 -11 -7 -18z m-35 -16
c-13 -15 -14 -20 -4 -24 7 -3 -2 -5 -19 -4 -18 0 -33 1 -33 3 0 3 64 44 69 44
2 0 -4 -9 -13 -19z m152 -86 c-14 -31 -18 -28 -11 7 3 15 9 25 14 23 4 -3 3
-17 -3 -30z m286 20 c3 -8 -3 -19 -12 -25 -13 -8 -7 -9 27 -7 33 1 46 -2 55
-16 9 -15 6 -22 -19 -44 -33 -29 -49 -15 -19 18 19 22 16 23 -21 9 -29 -11
-65 2 -65 23 0 16 28 57 39 57 5 0 11 -7 15 -15z m650 -17 c17 -63 -3 -112
-36 -91 -7 3 -8 1 -4 -5 4 -8 -8 -10 -39 -9 -25 1 -45 5 -45 10 0 4 -6 6 -12
5 -7 -2 -12 2 -11 9 2 7 -4 10 -12 7 -10 -4 -15 0 -15 14 0 12 -4 24 -10 27
-19 12 -10 33 15 33 16 0 25 -6 25 -17 0 -9 4 -21 8 -27 10 -15 54 -25 70 -15
16 10 5 41 -16 41 -28 0 20 39 49 39 19 1 28 -5 33 -21z m-1164 8 c0 -2 -7 -7
-16 -10 -8 -3 -12 -2 -9 4 6 10 25 14 25 6z m639 -77 c-21 -13 -36 -10 -18 4
9 7 14 19 12 27 -3 9 1 7 8 -4 9 -14 8 -20 -2 -27z m-131 -36 c23 -25 39 -50
36 -55 -3 -4 0 -8 5 -8 6 0 11 -7 11 -15 0 -8 5 -15 11 -15 5 0 7 -5 3 -12 -6
-9 -9 -9 -12 0 -5 17 -22 15 -22 -3 0 -8 -4 -15 -10 -15 -5 0 -10 11 -10 25 0
14 -4 25 -10 25 -5 0 -10 -9 -10 -20 0 -21 -27 -40 -57 -40 -10 0 -34 -14 -53
-30 -19 -16 -41 -30 -47 -30 -7 0 -13 -5 -13 -11 0 -6 13 -8 31 -5 25 4 28 2
19 -9 -9 -10 -18 -11 -37 -4 -19 7 -35 6 -57 -5 -17 -8 -44 -19 -59 -25 -36
-14 -46 -40 -22 -57 17 -13 17 -14 2 -14 -10 0 -20 7 -23 15 -4 8 -13 15 -21
15 -12 0 -14 -7 -8 -27 3 -16 11 -29 16 -31 5 -2 9 -7 9 -11 0 -11 -50 -32
-61 -26 -5 4 -14 3 -20 -1 -7 -4 -28 -8 -47 -10 -42 -4 -31 13 12 18 33 3 57
31 40 48 -7 7 -21 2 -44 -15 -18 -14 -36 -22 -39 -19 -3 4 0 9 7 11 6 3 10 9
6 14 -3 5 3 9 13 9 15 0 16 2 3 11 -13 9 -13 10 0 8 34 -3 40 1 35 24 -5 18 0
26 20 37 23 12 27 11 39 -6 8 -10 18 -16 22 -11 4 4 2 7 -4 7 -7 0 -12 5 -12
10 0 6 6 10 13 9 6 -1 23 -1 37 0 20 1 22 3 10 11 -11 7 -12 10 -2 10 18 0 85
31 93 43 4 5 12 6 19 2 9 -6 11 -4 5 4 -4 8 -18 10 -34 7 -21 -4 -20 -2 8 10
18 8 31 17 28 20 -8 8 -77 -29 -71 -38 3 -5 0 -8 -7 -7 -19 4 -107 -31 -148
-58 -19 -13 -45 -26 -58 -29 -16 -5 -22 -11 -18 -22 5 -12 3 -13 -10 -2 -9 7
-14 18 -12 23 2 6 -7 21 -19 34 -45 49 -39 92 12 93 11 0 31 12 45 26 l24 26
-24 -7 c-17 -5 -21 -4 -16 5 4 6 17 9 29 6 12 -3 35 2 51 12 17 10 66 29 110
41 44 13 85 28 92 33 7 5 16 7 21 4 6 -3 9 2 8 12 -1 14 7 17 41 17 23 1 45 4
49 8 17 17 44 4 82 -40z m708 -35 c7 -10 -63 -21 -83 -13 -17 7 -16 8 2 15 24
10 75 9 81 -2z m-581 -16 c0 -7 -3 -11 -7 -9 -4 1 -14 -7 -23 -18 -13 -15 -15
-16 -11 -3 3 9 0 19 -7 22 -7 2 -4 5 6 5 9 1 17 6 17 12 0 6 6 9 13 7 6 -3 12
-10 12 -16z m42 -44 c-6 -4 -15 -2 -19 5 -4 6 -2 15 5 19 6 4 15 2 19 -5 4 -6
2 -15 -5 -19z m-51 -20 c4 -7 3 -8 -4 -4 -7 4 -12 1 -12 -8 0 -8 -9 -20 -20
-26 -17 -9 -20 -8 -20 11 0 15 5 19 15 15 9 -3 15 0 15 9 0 18 16 20 26 3z
m137 -27 c2 -11 0 -24 -6 -30 -8 -8 -8 -11 0 -11 20 0 21 -40 1 -65 -11 -14
-14 -25 -8 -25 6 0 9 -4 6 -8 -3 -5 -19 -7 -37 -4 -22 3 -27 7 -18 13 11 7 11
9 -1 10 -8 0 -4 5 10 9 21 7 18 8 -20 11 -37 2 -39 3 -14 6 26 3 31 8 27 24
-3 10 -13 19 -22 19 -14 0 -14 -2 -1 -10 21 -13 6 -23 -22 -14 -13 4 -27 7
-33 5 -5 -1 -1 7 9 18 13 14 26 19 40 15 16 -4 17 -3 7 4 -11 8 -5 15 25 31
49 25 51 25 57 2z m-204 -29 c-1 -27 -1 -27 -8 3 -5 25 -8 27 -14 12 -4 -11
-5 -23 -2 -27 3 -5 1 -11 -4 -14 -18 -12 -22 14 -5 39 19 30 34 24 33 -13z
m625 22 c4 -9 4 -19 2 -21 -8 -8 -26 8 -26 23 0 19 16 18 24 -2z m56 -39 c144
-10 153 -13 148 -46 -3 -21 0 -29 10 -29 12 0 12 -3 2 -15 -16 -19 -31 -20
-24 -1 8 20 -12 29 -36 16 -16 -9 -20 -8 -20 4 0 10 6 13 15 10 26 -11 16 11
-12 24 -18 8 -30 9 -37 2 -15 -15 -26 -12 -26 8 0 14 -2 15 -10 2 -8 -12 -10
-12 -10 -1 0 8 -3 11 -7 7 -5 -4 1 -14 11 -22 20 -14 33 -50 15 -38 -5 3 -7
10 -4 15 9 14 -3 11 -30 -7 -31 -20 -32 -31 -2 -37 19 -4 18 -4 -5 -6 -19 -1
-28 4 -28 14 0 8 -4 15 -10 15 -5 0 -10 5 -10 11 0 6 6 9 13 6 8 -3 20 -1 28
4 10 6 6 9 -14 9 -19 0 -38 -10 -57 -30 -15 -17 -34 -28 -42 -26 -7 2 -26 7
-41 11 -21 4 -27 10 -23 22 4 9 1 20 -6 25 -9 5 -7 8 8 8 12 0 27 6 33 14 15
18 -24 26 -128 27 -49 0 -69 3 -56 9 20 8 202 5 355 -5z m-300 -25 c10 5 30 9
44 8 21 -2 23 -5 13 -17 -9 -12 -9 -13 1 -7 8 5 11 1 8 -16 -4 -24 -12 -26
-56 -15 -17 5 -14 2 8 -8 l33 -15 -17 -29 c-22 -37 -64 -59 -64 -33 0 10 -3
13 -8 6 -9 -14 -62 -24 -62 -13 0 5 9 9 20 9 11 0 20 5 20 10 0 6 -7 10 -15
10 -8 0 -15 5 -15 10 0 6 5 10 10 10 6 0 10 7 10 16 0 11 5 14 16 10 38 -15
67 -19 60 -8 -3 6 -20 13 -36 17 -17 4 -30 11 -30 16 0 6 10 8 23 5 12 -3 16
-3 9 0 -6 3 -10 10 -6 15 3 5 -3 9 -13 10 -16 0 -16 1 2 8 11 5 21 4 23 0 2
-5 12 -4 22 1z m370 -30 c0 -5 -4 -10 -9 -10 -6 0 -13 5 -16 10 -3 6 1 10 9
10 9 0 16 -4 16 -10z m191 -4 c4 2 20 -3 35 -11 l29 -15 -26 0 c-57 0 -119 13
-119 25 0 10 10 11 37 5 20 -5 40 -7 44 -4z m-1081 -6 c-20 -13 -43 -13 -35 0
3 6 16 10 28 10 18 0 19 -2 7 -10z m360 -30 c0 -16 -2 -30 -4 -30 -2 0 -6 14
-8 30 -3 17 -1 30 4 30 4 0 8 -13 8 -30z m660 -5 c0 -8 -9 -15 -20 -15 -17 0
-19 2 -8 15 17 19 28 19 28 0z m-270 -16 c0 -6 -4 -7 -10 -4 -5 3 -10 11 -10
16 0 6 5 7 10 4 6 -3 10 -11 10 -16z m-870 1 c0 -5 -5 -10 -11 -10 -5 0 -7 5
-4 10 3 6 8 10 11 10 2 0 4 -4 4 -10z m365 -4 c16 -6 17 -9 5 -16 -13 -8 -12
-11 5 -24 18 -13 18 -16 5 -30 -12 -12 -23 -14 -47 -7 -17 5 -51 8 -77 7 -25
-1 -46 2 -46 6 0 4 7 8 15 8 8 0 20 9 27 20 7 11 16 20 21 20 4 0 5 -4 2 -10
-3 -5 1 -10 10 -10 10 0 15 6 12 13 -4 10 2 13 21 9 21 -4 24 -2 19 12 -4 9
-3 15 1 13 4 -2 16 -7 27 -11z m417 4 c10 0 15 -6 12 -17 -8 -35 12 -47 85
-51 47 -3 71 -1 71 7 0 6 -7 8 -15 5 -8 -4 -15 -1 -15 6 0 6 10 10 23 8 20 -3
22 -9 23 -60 0 -32 3 -61 7 -64 12 -13 7 -24 -8 -18 -9 4 -15 0 -15 -10 0 -9
5 -16 12 -16 6 0 9 -3 6 -6 -4 -3 -19 1 -35 9 -16 8 -41 13 -56 10 -20 -4 -42
3 -77 25 -26 16 -58 33 -70 37 -19 6 -21 5 -11 -13 16 -31 14 -35 -19 -28 -16
3 -43 9 -60 12 -16 4 -30 10 -30 15 0 4 -9 13 -20 19 -16 9 -24 7 -36 -5 -24
-24 -47 -20 -38 8 12 41 24 47 90 47 35 0 63 3 62 8 -3 14 14 42 27 42 7 0 15
10 18 21 5 17 11 20 29 15 13 -3 30 -6 40 -6z m350 -17 c-10 -4 -10 -8 -1 -19
9 -11 8 -14 -5 -14 -9 0 -16 5 -16 11 0 6 -7 8 -16 5 -14 -5 -15 -4 -4 9 7 8
22 15 34 14 11 0 15 -3 8 -6z m-716 -18 c4 -8 9 -13 13 -10 4 2 8 -2 8 -10 0
-19 0 -19 -25 10 -12 14 -17 25 -12 25 6 0 13 -7 16 -15z m479 5 c-27 -12 -35
-12 -35 0 0 6 12 10 28 9 24 0 25 -1 7 -9z m-990 -10 c8 -13 -5 -13 -25 0 -13
8 -13 10 2 10 9 0 20 -4 23 -10z m35 6 c0 -3 -4 -8 -10 -11 -5 -3 -10 -1 -10
4 0 6 5 11 10 11 6 0 10 -2 10 -4z m1459 -38 c14 -19 5 -23 -18 -9 -7 5 -10
14 -6 21 4 6 8 10 9 8 1 -2 8 -11 15 -20z m-1443 -7 l-30 -20 27 -6 c14 -4 32
-5 39 -2 7 3 2 6 -11 6 -40 2 -16 13 33 16 45 3 57 -4 69 -37 9 -27 -12 -22
-22 5 -8 20 -10 20 -16 4 -4 -10 -3 -23 4 -30 18 -18 13 -28 -13 -21 -14 3
-27 1 -31 -7 -6 -8 -13 -5 -26 12 -10 13 -19 18 -19 11 0 -10 -8 -8 -28 6 -15
11 -43 24 -62 29 l-35 9 45 12 c25 6 52 16 60 22 8 5 22 10 30 10 8 0 2 -9
-14 -19z m462 -3 c11 -14 11 -16 -2 -14 -21 3 -29 13 -21 26 4 6 8 10 9 8 1
-2 7 -11 14 -20z m35 -45 c-6 -2 -8 -13 -5 -25 3 -14 1 -19 -8 -16 -7 2 -15
13 -16 23 -3 21 14 37 30 28 6 -4 6 -8 -1 -10z m-591 -51 c3 8 9 4 18 -12 12
-23 12 -24 -3 -11 -13 10 -17 11 -17 1 0 -7 -9 -3 -20 10 -25 29 -26 38 -1 16
15 -13 20 -14 23 -4z m58 -36 c0 -12 -14 5 -31 39 -8 16 -6 15 10 -4 12 -13
21 -28 21 -35z m143 34 c7 0 6 -4 -3 -10 -21 -14 -27 -12 -34 6 -5 12 -2 15
10 10 8 -3 21 -6 27 -6z m517 0 c0 -5 -7 -10 -15 -10 -8 0 -15 5 -15 10 0 6 7
10 15 10 8 0 15 -4 15 -10z m-147 -15 c-3 -9 -8 -14 -10 -11 -3 3 -2 9 2 15 9
16 15 13 8 -4z m192 5 c-3 -5 -12 -7 -20 -3 -21 7 -19 13 6 13 11 0 18 -4 14
-10z m50 -10 c-3 -5 -12 -7 -20 -3 -21 7 -19 13 6 13 11 0 18 -4 14 -10z
m-138 -13 c6 2 14 -1 17 -6 5 -7 -13 -10 -49 -8 -30 1 -55 5 -55 9 0 10 43 15
60 7 8 -3 20 -4 27 -2z m193 3 c0 -13 -11 -13 -30 0 -12 8 -11 10 8 10 12 0
22 -4 22 -10z m45 0 c3 -5 -3 -10 -15 -10 -12 0 -18 5 -15 10 3 6 10 10 15 10
5 0 12 -4 15 -10z m-128 -14 c12 -12 -3 -15 -40 -9 -20 3 -37 10 -37 15 0 9
67 5 77 -6z m183 4 c0 -5 -6 -10 -14 -10 -8 0 -18 5 -21 10 -3 6 3 10 14 10
12 0 21 -4 21 -10z m45 0 c3 -5 -1 -10 -9 -10 -9 0 -16 5 -16 10 0 6 4 10 9
10 6 0 13 -4 16 -10z m-827 -38 c-11 -44 -48 -76 -48 -42 0 12 9 30 20 42 10
12 17 25 14 30 -3 4 1 8 9 8 12 0 13 -7 5 -38z m632 28 c0 -5 -2 -10 -4 -10
-3 0 -8 5 -11 10 -3 6 -1 10 4 10 6 0 11 -4 11 -10z m70 -10 c0 -5 -7 -10 -15
-10 -8 0 -15 5 -15 10 0 6 7 10 15 10 8 0 15 -4 15 -10z m42 -12 c-11 -11 -32
-3 -32 12 0 4 9 6 21 3 13 -4 17 -9 11 -15z m43 2 c3 -5 -1 -10 -9 -10 -9 0
-16 5 -16 10 0 6 4 10 9 10 6 0 13 -4 16 -10z m-120 -10 c3 -5 -3 -10 -14 -10
-12 0 -21 5 -21 10 0 6 6 10 14 10 8 0 18 -4 21 -10z m155 0 c0 -5 -2 -10 -4
-10 -3 0 -8 5 -11 10 -3 6 -1 10 4 10 6 0 11 -4 11 -10z m40 0 c0 -5 -4 -10
-10 -10 -5 0 -10 5 -10 10 0 6 5 10 10 10 6 0 10 -4 10 -10z m-392 -9 c1 -1 2
-5 2 -11 0 -11 -42 -13 -77 -4 -42 12 -24 26 25 21 26 -3 48 -6 50 -6z m432
-6 c7 -8 8 -15 2 -15 -5 0 -15 7 -22 15 -7 8 -8 15 -2 15 5 0 15 -7 22 -15z
m-375 -5 c4 -6 -6 -10 -22 -9 -25 0 -26 1 -8 9 11 5 21 9 22 9 1 1 5 -3 8 -9z
m75 -8 c0 -5 -13 -7 -30 -4 -16 2 -30 6 -30 8 0 2 14 4 30 4 17 0 30 -4 30 -8z
m48 1 c16 -4 20 -8 12 -13 -15 -9 -50 -1 -50 11 0 11 7 11 38 2z m147 -8 c48
-6 120 -33 111 -42 -2 -3 -14 1 -26 7 -11 6 -51 13 -88 16 -37 3 -78 8 -92 11
-23 5 -24 6 -5 13 11 5 27 7 35 4 8 -2 37 -6 65 -9z"/>
<path d="M3000 1421 c0 -5 7 -11 14 -14 10 -4 13 -1 9 9 -6 15 -23 19 -23 5z"/>
<path d="M2600 1210 c-9 -6 -10 -10 -3 -10 6 0 15 5 18 10 8 12 4 12 -15 0z"/>
<path d="M3711 1189 c17 -11 39 -12 39 -1 0 4 -12 8 -27 9 -19 1 -22 -1 -12
-8z"/>
<path d="M3430 1102 c0 -11 24 -22 48 -22 21 0 5 15 -25 25 -13 3 -23 2 -23
-3z"/>
<path d="M3200 1040 c20 -13 33 -13 25 0 -3 6 -14 10 -23 10 -15 0 -15 -2 -2
-10z"/>
<path d="M3698 1013 c7 -3 16 -2 19 1 4 3 -2 6 -13 5 -11 0 -14 -3 -6 -6z"/>
<path d="M2850 962 c0 -5 7 -9 15 -9 8 0 12 4 9 9 -3 4 -9 8 -15 8 -5 0 -9 -4
-9 -8z"/>
<path d="M1185 2290 c-3 -5 1 -10 10 -10 9 0 13 5 10 10 -3 6 -8 10 -10 10 -2
0 -7 -4 -10 -10z"/>
<path d="M3536 2238 c-3 -7 -7 -44 -10 -81 -5 -64 -4 -68 14 -62 29 9 24 -5
-17 -47 -29 -30 -34 -40 -24 -52 6 -7 13 -31 14 -52 2 -38 3 -39 44 -42 32 -2
47 2 62 17 12 12 16 21 10 21 -8 0 -8 5 1 15 16 19 69 20 76 0 4 -8 10 -12 15
-9 5 3 7 9 4 14 -3 4 4 6 15 3 11 -3 20 0 20 6 0 6 -5 11 -11 11 -5 0 -7 4 -4
10 3 5 2 18 -3 27 -5 10 -12 32 -15 50 -6 29 -4 32 21 35 15 2 27 8 27 15 0 6
3 15 7 19 4 4 2 14 -5 22 -10 13 -9 14 1 8 11 -6 12 0 6 31 -8 47 -15 55 -34
42 -13 -9 -12 -10 3 -5 9 3 17 1 17 -4 0 -5 -8 -14 -17 -19 -10 -6 -12 -11 -5
-11 6 0 12 -11 12 -24 0 -22 -3 -23 -77 -24 -50 0 -69 2 -53 7 22 7 20 8 -20
15 -36 5 -46 11 -46 26 0 15 7 20 28 20 15 0 28 4 28 9 0 4 -11 7 -25 6 -14
-2 -25 1 -25 6 0 14 -30 11 -34 -3z m64 -80 c0 -4 -4 -8 -9 -8 -6 0 -12 4 -15
8 -3 5 1 9 9 9 8 0 15 -4 15 -9z m77 -64 c-3 -3 -12 -4 -19 -1 -8 3 -5 6 6 6
11 1 17 -2 13 -5z"/>
<path d="M3580 2200 c0 -5 15 -10 33 -9 27 0 29 2 12 9 -28 12 -45 12 -45 0z"/>
<path d="M3678 2193 c7 -3 16 -2 19 1 4 3 -2 6 -13 5 -11 0 -14 -3 -6 -6z"/>
<path d="M3738 2083 c7 -3 16 -2 19 1 4 3 -2 6 -13 5 -11 0 -14 -3 -6 -6z"/>
<path d="M2576 1921 c-3 -5 1 -14 9 -21 12 -10 15 -10 15 3 0 19 -16 31 -24
18z"/>
<path d="M2600 1864 c0 -8 5 -12 10 -9 6 4 8 11 5 16 -9 14 -15 11 -15 -7z"/>
<path d="M2385 1820 c-3 -5 -1 -10 4 -10 6 0 11 5 11 10 0 6 -2 10 -4 10 -3 0
-8 -4 -11 -10z"/>
<path d="M1923 1813 l-43 -4 28 -26 c27 -26 137 -83 159 -83 7 0 10 7 7 15 -4
8 -3 26 0 40 5 18 11 23 24 18 14 -5 14 -3 -3 15 -22 21 -95 32 -172 25z"/>
<path d="M2200 1634 c0 -3 7 -12 15 -20 16 -17 18 -14 9 10 -6 15 -24 23 -24
10z"/>
<path d="M2350 1605 c0 -13 -19 -20 -44 -16 -17 3 -46 -11 -40 -20 3 -5 11 -6
17 -2 7 5 28 8 47 8 29 0 36 4 38 23 2 12 -1 22 -7 22 -6 0 -11 -7 -11 -15z"/>
<path d="M2325 1509 c11 -15 26 -24 33 -22 16 7 9 29 -8 25 -7 -1 -19 3 -28
10 -11 9 -10 4 3 -13z"/>
<path d="M1155 1396 c-119 -38 -200 -98 -266 -196 -29 -43 -63 -168 -53 -194
4 -10 0 -18 -10 -22 -9 -3 -17 -16 -17 -28 -1 -19 -2 -19 -6 -2 -4 14 -7 15
-13 6 -4 -7 -37 -15 -74 -19 -65 -7 -95 -25 -96 -58 0 -15 -20 -18 -20 -3 0 6
-5 10 -11 10 -6 0 -8 -9 -4 -20 5 -16 2 -20 -17 -21 -15 0 -18 -3 -8 -6 8 -3
19 -12 23 -20 9 -14 79 -53 97 -53 6 0 17 -6 24 -12 7 -7 27 -24 44 -38 18
-14 32 -31 32 -38 0 -16 39 -51 56 -52 7 0 24 16 38 35 22 29 34 35 63 35 42
0 113 -31 150 -66 27 -25 51 -31 145 -38 32 -2 61 -7 66 -10 5 -3 37 -8 73
-11 35 -3 74 -8 87 -11 29 -6 28 2 -8 43 -16 18 -30 40 -30 48 0 7 -9 16 -19
20 -14 4 -22 19 -27 51 -9 65 2 128 36 200 37 80 88 136 146 165 l45 21 -33
29 c-18 15 -36 28 -40 29 -5 0 -29 15 -55 33 -52 37 -83 51 -83 38 0 -4 -15
-12 -32 -18 -33 -9 -33 -9 -35 26 -1 20 -9 41 -19 48 -13 9 -14 13 -4 13 9 0
7 7 -8 20 -29 28 -63 25 -130 -9 -64 -34 -111 -75 -162 -143 -19 -26 -41 -45
-47 -43 -14 5 -18 -20 -5 -28 4 -2 2 -3 -4 -1 -13 2 -38 -35 -29 -44 3 -4 10
0 16 8 6 10 7 4 3 -20 -8 -42 -14 -51 -14 -22 0 12 -4 22 -10 22 -36 0 33 150
100 219 61 63 89 83 102 75 7 -5 8 -2 3 6 -6 10 -4 12 9 7 9 -4 15 -3 12 2 -6
9 17 22 37 20 7 0 3 -4 -8 -9 -13 -5 -14 -9 -5 -9 23 0 58 17 40 19 -18 2 27
18 55 19 17 1 18 -1 5 -10 -11 -8 -7 -9 18 -5 45 8 98 -16 150 -67 23 -22 42
-35 42 -28 0 8 -17 30 -38 50 -65 62 -184 86 -277 57z m132 -96 c14 -11 24
-21 22 -21 -2 -1 -17 -3 -34 -4 -25 -3 -27 -1 -13 8 15 10 15 12 0 24 -9 7
-13 13 -9 13 5 0 20 -9 34 -20z m28 -55 c6 -2 -11 -4 -37 -4 -27 -1 -48 3 -48
7 0 7 62 5 85 -3z m171 -89 c7 -39 0 -56 -22 -56 -8 0 -14 -6 -14 -14 0 -11
-18 -15 -70 -18 -74 -3 -85 1 -47 21 l22 11 -23 -6 c-21 -5 -23 -3 -17 18 19
67 26 72 117 76 46 2 47 2 54 -32z m-230 -113 c-6 -6 -36 9 -36 18 0 5 9 4 20
-3 10 -7 18 -14 16 -15z m34 -13 c0 -5 -2 -10 -4 -10 -3 0 -8 5 -11 10 -3 6
-1 10 4 10 6 0 11 -4 11 -10z m-317 -194 c4 4 17 0 29 -8 13 -9 38 -19 56 -22
17 -4 34 -12 37 -17 4 -5 19 -9 36 -9 30 0 39 -14 17 -24 -7 -3 -3 -3 9 0 24
6 125 -27 158 -52 17 -13 18 -16 5 -24 -17 -11 -37 -6 -93 21 -21 9 -51 21
-67 24 -17 4 -30 13 -30 21 0 9 -4 12 -10 9 -5 -3 -21 2 -36 12 -27 17 -36 20
-84 27 -17 2 -24 9 -22 20 2 9 -1 16 -5 15 -19 -3 -33 2 -33 12 0 8 4 9 13 0
8 -6 17 -8 20 -5z"/>
<path d="M1396 1147 c3 -10 9 -15 12 -12 3 3 0 11 -7 18 -10 9 -11 8 -5 -6z"/>
<path d="M1863 1030 c-1 -11 2 -20 7 -20 10 0 20 26 13 34 -12 11 -19 6 -20
-14z"/>
<path d="M4135 1010 c-3 -5 -1 -10 4 -10 6 0 11 5 11 10 0 6 -2 10 -4 10 -3 0
-8 -4 -11 -10z"/>
<path d="M3928 1003 c7 -3 16 -2 19 1 4 3 -2 6 -13 5 -11 0 -14 -3 -6 -6z"/>
<path d="M1860 977 c0 -27 25 -65 35 -55 4 4 4 23 1 43 -8 40 -36 49 -36 12z"/>
<path d="M4210 981 c0 -6 9 -9 19 -8 11 0 17 5 15 9 -7 11 -34 10 -34 -1z"/>
<path d="M3980 929 c0 -5 5 -7 10 -4 6 3 10 8 10 11 0 2 -4 4 -10 4 -5 0 -10
-5 -10 -11z"/>
<path d="M4035 930 c3 -5 8 -10 11 -10 2 0 4 5 4 10 0 6 -5 10 -11 10 -5 0 -7
-4 -4 -10z"/>
<path d="M4070 930 c0 -5 5 -10 10 -10 6 0 10 5 10 10 0 6 -4 10 -10 10 -5 0
-10 -4 -10 -10z"/>
<path d="M4190 919 c0 -5 5 -7 10 -4 6 3 10 8 10 11 0 2 -4 4 -10 4 -5 0 -10
-5 -10 -11z"/>
<path d="M4300 901 c0 -10 7 -21 15 -25 8 -3 15 -1 15 4 0 6 -5 10 -11 10 -6
0 -9 7 -5 15 3 8 1 15 -4 15 -6 0 -10 -9 -10 -19z"/>
<path d="M4088 893 c7 -3 16 -2 19 1 4 3 -2 6 -13 5 -11 0 -14 -3 -6 -6z"/>
<path d="M4340 870 c0 -5 5 -10 10 -10 6 0 10 5 10 10 0 6 -4 10 -10 10 -5 0
-10 -4 -10 -10z"/>
<path d="M4380 844 c0 -13 -11 -14 -72 -9 -53 5 -69 4 -58 -4 8 -6 36 -11 61
-11 44 0 46 -1 46 -30 l0 -30 -106 -2 c-58 -1 -149 -2 -203 -2 l-96 0 45 -28
c25 -16 79 -38 119 -48 40 -10 87 -28 105 -41 23 -16 53 -24 108 -29 42 -4 84
-11 94 -15 10 -4 17 -3 17 4 0 20 -28 75 -56 109 l-27 32 31 0 c17 0 33 4 36
8 7 11 -26 112 -36 112 -5 0 -8 -7 -8 -16z m27 -50 c-7 -7 -37 7 -37 17 0 6 9
5 21 -1 11 -7 19 -14 16 -16z m-10 -20 c-3 -3 -12 -4 -19 -1 -8 3 -5 6 6 6 11
1 17 -2 13 -5z"/>
<path d="M3070 820 c0 -11 4 -20 9 -20 5 0 7 9 4 20 -3 11 -7 20 -9 20 -2 0
-4 -9 -4 -20z"/>
<path d="M4018 823 c6 -2 18 -2 25 0 6 3 1 5 -13 5 -14 0 -19 -2 -12 -5z"/>
<path d="M4080 821 c0 -6 7 -8 15 -5 8 4 15 2 15 -2 0 -5 24 -10 53 -11 45 -2
49 -1 27 8 -37 17 -110 23 -110 10z"/>
<path d="M2610 805 c-7 -8 -9 -15 -4 -15 5 -1 -6 -9 -25 -19 -33 -17 -34 -19
-14 -29 17 -10 24 -7 47 18 22 25 23 30 9 30 -15 0 -16 2 -3 10 8 5 12 12 9
15 -4 3 -12 -1 -19 -10z"/>
<path d="M4230 779 c0 -5 11 -9 25 -9 14 0 25 2 25 4 0 2 -11 6 -25 8 -14 3
-25 1 -25 -3z"/>
<path d="M3415 750 c3 -5 11 -10 16 -10 6 0 7 5 4 10 -3 6 -11 10 -16 10 -6 0
-7 -4 -4 -10z"/>
<path d="M3537 738 c-7 -5 -3 -8 13 -9 14 0 40 -2 58 -5 18 -2 31 0 28 5 -8
12 -84 19 -99 9z"/>
<path d="M3543 703 c9 -2 23 -2 30 0 6 3 -1 5 -18 5 -16 0 -22 -2 -12 -5z"/>
<path d="M4435 475 c-60 -12 -191 -39 -290 -60 -120 -24 -183 -42 -189 -52
-11 -21 -60 -40 -152 -58 -110 -23 -153 -53 -154 -107 0 -26 10 -33 120 -88
66 -33 120 -64 120 -69 0 -8 -122 -24 -167 -22 -12 0 -25 -4 -28 -9 -4 -7 146
-10 429 -10 l436 0 0 250 c0 138 -3 250 -7 249 -5 0 -57 -11 -118 -24z"/>
</g>
</svg>
