<?xml version="1.0" standalone="no"?>
<!DOCTYPE svg PUBLIC "-//W3C//DTD SVG 20010904//EN"
 "http://www.w3.org/TR/2001/REC-SVG-20010904/DTD/svg10.dtd">
<svg version="1.0" xmlns="http://www.w3.org/2000/svg"
 width="16.000000pt" height="16.000000pt" viewBox="0 0 16.000000 16.000000"
 preserveAspectRatio="xMidYMid meet">

<g transform="translate(0.000000,16.000000) scale(0.100000,-0.100000)"
fill="#000000" stroke="none">
<path d="M0 115 c0 -39 3 -45 21 -45 11 0 30 6 42 12 12 7 31 13 42 13 11 0
20 6 19 13 -1 6 -2 21 -2 32 -2 18 -9 20 -62 20 l-60 0 0 -45z"/>
<path d="M76 51 c-23 -26 -20 -34 12 -26 31 8 54 13 65 14 13 2 7 19 -10 25
-10 4 -20 1 -25 -9 -5 -8 -14 -15 -21 -15 -8 0 -8 3 2 9 8 5 9 11 3 15 -5 3
-17 -3 -26 -13z"/>
<path d="M30 30 c0 -5 5 -10 10 -10 6 0 10 5 10 10 0 6 -4 10 -10 10 -5 0 -10
-4 -10 -10z"/>
<path d="M140 10 c-13 -8 -12 -10 3 -10 9 0 17 5 17 10 0 12 -1 12 -20 0z"/>
</g>
</svg>
